PathFileType	4	(X/Y/Z)	C:/Users/beibeiliu/ov580/test_trc/User1\sequence.13_training_dense_right.trc
DataRate	CameraRate	NumFrames	NumMarkers	Units	OrigDataRate	OrigDataStartFrame	OrigNumFrames
120	120	16	19	mm	120	238	316
Frame#	Time	ThumbCMC			ThumbMCP			ThumbIP			ThumbTip			IndexMCP			IndexPIP			IndexTip			MiddleMCP			MiddlePIP			MiddleTip			RingMCP			RingPIP			RingTip			PinkyMCP			PinkyPIP			PinkyTip			BackHand1			BackHand2			BackHand3	
		X0	Y0	Z0	X1	Y1	Z1	X2	Y2	Z2	X3	Y3	Z3	X4	Y4	Z4	X5	Y5	Z5	X6	Y6	Z6	X7	Y7	Z7	X8	Y8	Z8	X9	Y9	Z9	X10	Y10	Z10	X11	Y11	Z11	X12	Y12	Z12	X13	Y13	Z13	X14	Y14	Z14	X15	Y15	Z15	X16	Y16	Z16	X17	Y17	Z17	X18	Y18	Z18	
237	1.975	118.55	-2.26882	48.5448	98.6046	-15.902	19.9592	91.6817	-15.9974	-7.72333	90.6874	-23.1058	-33.7014	119.49	33.2867	-23.5992	109.749	11.3247	-46.2553	113.278	-22.6907	-27.0835	151.259	45.243	-31.2719	143.251	52.0306	-58.6053	136.695	55.7466	-88.6931	178.937	34.2422	-27.4142	178.554	45.5063	-48.8869	179.725	52.5788	-73.8346	199.066	3.66984	-20.4587	210.43	6.37132	-37.0842	219.019	18.5617	-52.7178	182.446	15.9044	24.0588	187.502	5.36283	55.9813	155.5	22.7867	47.8148	
238	1.98333	120.697	-3.82786	51.9563	102.407	-14.6633	19.9485	89.1946	-15.4781	-6.68273	88.2228	-22.6222	-32.5329	121.284	33.045	-24.5389	105.858	13.2959	-44.655	110.902	-19.0594	-28.8162	153.154	43.0715	-29.7772	146.021	49.9793	-61.131	139.018	53.5894	-85.446	179.209	31.6247	-25.5102	181.551	42.9448	-49.4221	180.174	52.8091	-78.1837	201.256	-0.463118	-20.2441	206.377	4.30431	-35.3369	219.407	17.4073	-49.904	183.458	13.3065	26.6867	190.788	-0.130771	56.6415	155.575	22.7886	46.9418	
239	1.99167	120.744	0.807876	47.5283	105.342	-10.7512	20.3977	93.0629	-11.9392	-6.1965	92.2336	-17.3293	-36.4763	124.494	35.622	-22.2343	112.721	15.8306	-45.8112	112.081	-16.9543	-30.0709	160.857	40.5004	-30.3935	156.352	47.3246	-57.5651	145.713	53.8967	-86.4679	187.05	27.7281	-28.1625	188.606	39.176	-52.319	189.171	48.131	-77.6139	203.258	-6.97824	-16.7612	208.754	-2.20644	-34.3722	227.15	7.5505	-49.2068	185.939	9.03624	22.9806	190.176	-0.969102	55.6275	161.133	19.4134	48.3943	
240	2	129.598	4.02779	47.419	104.916	-2.76956	17.5449	97.9897	-3.94329	-7.08039	92.0154	-11.204	-33.9591	138.029	36.4553	-28.3781	121.633	14.608	-48.422	115.581	-11.8541	-32.7686	173.379	36.6562	-33.6121	167.17	44.1675	-57.9267	160.067	52.3845	-89.5305	194.604	19.453	-26.6945	198.086	32.1972	-52.7103	198.878	39.1475	-73.1544	209.698	-14.5967	-18.9345	214.322	-10.7072	-33.1148	229.046	-3.99967	-48.3654	194.936	0.0108415	26.4349	197.921	-9.68701	59.8194	170.057	19.6435	46.1846	
241	2.00833	134.912	10.7051	45.6867	110.373	4.9501	14.5256	104.03	4.81642	-11.3072	100.347	-2.91609	-37.7903	150.094	36.8058	-27.9259	132.435	21.1721	-49.7639	118.128	-6.47336	-35.2726	184.697	31.7249	-33.0092	180.843	40.805	-59.3175	181.127	42.624	-88.4939	204.418	10.9009	-26.0052	211.835	21.0382	-52.8826	215.752	24.4402	-75.2549	209.458	-24.1357	-15.5722	218.13	-23.0982	-32.5428	237.226	-18.4709	-49.126	199.303	-4.97014	27.0923	196.76	-14.4757	58.6525	177.837	17.4491	44.0554	
242	2.01667	141.298	15.625	43.8952	119.447	10.2792	14.9547	106.61	11.8664	-11.2408	102.565	3.58987	-33.6413	160.833	38.6779	-25.8063	140.453	23.8644	-50.13	123.717	-3.89005	-36.9532	195.444	24.3657	-32.7389	192.452	36.1219	-62.2383	193.674	36.6642	-88.6215	210.134	-0.25823	-23.921	220.139	10.3888	-51.2651	227.219	12.4774	-78.8243	208.729	-34.0097	-13.3227	220.742	-35.6522	-33.0883	238.729	-31.3221	-47.7749	200.031	-10.5928	24.103	199.602	-21.3169	59.4294	183.09	13.1824	47.7746	
243	2.025	144.755	18.0752	48.2568	122.059	16.1206	17.0798	113.512	17.6748	-10.9487	103.716	11.7755	-35.2631	168.18	35.1931	-31.9938	145.122	24.711	-49.3783	124.611	0.751991	-35.9232	201.976	16.5637	-31.1585	203.176	25.2154	-59.8095	202.094	30.0372	-90.0412	212.846	-6.75929	-24.7641	223.183	-0.198466	-49.7495	229.294	1.5784	-74.2399	205.087	-38.8481	-14.3157	216.393	-43.1977	-32.55	230.407	-44.3165	-46.1743	203.733	-20.1037	23.6665	198.426	-26.3002	58.1709	188.517	11.4267	46.395	
244	2.03333	150.441	19.6727	48.1021	128.921	20.259	15.055	118.444	23.8403	-13.6202	108.473	17.5954	-36.436	175.766	30.23	-31.4117	149.086	22.5672	-49.593	126.04	2.2879	-30.6793	205.881	11.466	-31.5752	207.78	15.5856	-62.1058	206.998	21.2783	-93.0758	214.71	-17.9779	-24.8256	225.234	-15.8158	-49.1547	231.755	-10.4835	-78.1928	201.146	-49.2402	-13.0459	209.908	-52.8349	-31.2398	227.211	-59.4232	-48.7254	202.186	-23.7141	27.7169	196.277	-31.7845	59.0932	193.154	8.08821	42.3067	
245	2.04167	158.492	21.6258	46.589	136.125	25.5094	13.8384	126.787	28.2798	-10.0461	115.792	21.1838	-35.5131	183.582	25.9603	-30.3169	156.414	25.2439	-48.422	131.213	4.78675	-27.2723	211.36	-1.5167	-35.5302	212.191	4.57905	-62.393	212.465	9.01328	-90.7506	212.241	-30.5267	-25.3123	223.398	-25.1242	-52.1768	227.398	-26.3804	-75.7376	194.598	-59.1674	-15.6981	200.691	-62.827	-30.9702	216.42	-69.4257	-47.9445	199.669	-32.3114	23.037	193.938	-36.6424	60.0725	195.742	1.55043	44.0474	
246	2.05	167.12	24.1684	42.952	143.876	30.1099	12.0443	134.482	31.4642	-12.1379	123.137	24.9466	-38.1081	190.067	19.6372	-32.3901	159.571	23.1413	-49.2298	135.796	12.4499	-28.7909	212.823	-11.6695	-37.9172	215.264	-8.01815	-65.625	215.11	-0.685549	-95.7971	208.526	-35.0091	-25.3217	219.832	-39.9338	-53.1508	223.02	-40.7108	-78.1706	184.7	-61.9714	-13.6778	189.931	-69.0203	-27.5606	206.226	-81.5501	-47.2796	196.142	-42.2964	24.2373	190.322	-43.2533	59.2015	199.874	-4.33035	43.4185	
247	2.05833	175.684	23.8245	41.8677	152.109	33.4897	11.4278	141.206	36.4442	-13.6859	126.738	33.565	-37.7415	196.873	15.0058	-33.5447	167.11	21.7521	-50.3462	141.392	21.1509	-26.2665	210.957	-19.5415	-37.3754	214.326	-16.3679	-67.1217	213.91	-12.1318	-95.5567	202.959	-47.843	-29.4265	209.973	-52.468	-54.2969	214.692	-52.3712	-80.7819	174.635	-68.5633	-13.8735	179.492	-74.5696	-29.6568	187.904	-89.4239	-44.9151	188.16	-46.3744	26.8386	186.622	-43.8015	57.8084	204.495	-12.233	39.8278	
248	2.06667	182.787	18.2025	41.4563	160.089	32.2023	13.8653	148.97	36.1836	-14.8139	132.175	36.4736	-36.5983	200.01	5.36545	-36.5824	174.696	14.8417	-53.8452	147.934	22.7197	-33.3153	206.3	-32.0982	-41.6852	209.824	-26.2884	-68.9364	206.991	-23.49	-98.5315	192.874	-52.4354	-27.6704	200.643	-57.7135	-52.9689	202.248	-61.157	-83.0572	163.57	-68.0035	-11.6067	164.833	-77.1621	-28.8218	171.774	-95.3898	-46.1362	184.694	-50.7456	25.8485	182.341	-53.421	59.1095	202.84	-21.8722	38.327	
249	2.075	189.634	11.3485	42.8085	167.644	29.7642	10.4006	155.216	33.6697	-12.3722	137.635	36.1254	-35.9574	198.856	-3.89746	-40.0803	177.142	13.2295	-55.4382	152.086	25.4415	-36.6516	200.27	-39.0596	-43.418	202.719	-33.9042	-69.1395	196.555	-31.3212	-101.971	185.591	-57.9994	-31.191	188.623	-64.7884	-56.8292	188.674	-66.4733	-83.6833	155.61	-65.7089	-13.3942	149.347	-77.9859	-25.8754	155.318	-93.205	-47.6942	181.87	-52.3323	24.598	179.896	-54.0341	60.0926	202.93	-31.9252	38.9013	
250	2.08333	195.056	9.16025	39.6779	173.233	31.8608	16.3991	160.074	38.0269	-10.528	142.755	37.9137	-28.8287	197.728	-4.35501	-40.4576	175.463	9.41738	-54.6585	155.744	29.6458	-36.5805	192.313	-38.8296	-41.0242	190.94	-36.4047	-71.5847	185.259	-30.2487	-100.64	172.538	-59.0818	-27.3552	175.02	-65.452	-56.1302	174.01	-66.6227	-85.0594	144.715	-64.0078	-10.5884	139.103	-75.2152	-27.3945	139.054	-88.5258	-45.1476	177.345	-54.7528	26.4413	178.404	-55.8453	56.6192	204.244	-33.4487	34.6102	
251	2.09167	198.535	7.47858	42.6699	175.945	28.4093	21.1646	162.338	37.83	-2.4585	144.097	42.6547	-25.5101	196.232	-5.57782	-35.4377	174.624	17.2569	-52.5316	151.825	34.0277	-28.7361	187.682	-35.5573	-40.894	182.642	-31.0431	-72.0155	177.729	-24.228	-98.7226	167.334	-55.2324	-29.6878	163.702	-62.5849	-56.8838	161.351	-60.3376	-84.5841	136.513	-62.0899	-8.5274	129.312	-68.7639	-26.4351	127.837	-83.5977	-44.2598	174.554	-56.3374	22.7292	173.634	-60.1745	55.5047	201.622	-36.6747	33.8328	
252	2.1	197.626	5.59649	43.8359	177.462	30.6476	20.3604	162.498	40.9023	-0.285734	144.196	45.5475	-15.6034	188.599	-6.97348	-36.5953	168.024	18.8636	-49.4223	151.56	38.4147	-24.1478	180.196	-34.4042	-42.3417	174.225	-30.145	-69.4275	166.664	-18.2241	-100.951	160.281	-52.3682	-29.8672	155.813	-58.3562	-57.1694	151.248	-56.2278	-84.415	133.719	-56.7413	-9.77211	120.527	-65.01	-22.2527	114.429	-77.9341	-39.86	168.951	-58.1954	23.8414	172.083	-62.755	56.2068	198.555	-40.276	33.9054	
